<svg id="Слой_1" height="512" viewBox="0 0 512 512" width="512" xmlns="http://www.w3.org/2000/svg"><g id="_x31_"><circle cx="244.749" cy="224.204" fill="#e6ecff" r="203.204"/><ellipse cx="244.749" cy="481.053" fill="#c7d1ea" rx="122.615" ry="9.947"/><path d="m307.668 367.842c-3.798 17-9.404 35.989-13.744 53.169-4.521 16.819-9.223 33.819-14.106 50.637-2.351 9.042-16.638 6.33-15.734-2.894 4.34-33.638 8.319-70.35 11.755-104.169 1.809-20.615 34.361-17.359 31.829 3.257z" fill="#ed7e97"/><path d="m207.298 469.479c.181 8.862-13.383 10.851-15.734 2.17-4.883-16.819-9.585-33.638-14.106-50.637-4.34-16.276-9.223-34.542-13.383-50.818-5.245-21.883 28.936-28.031 31.468-5.606 3.616 34.36 7.595 70.892 11.755 104.891z" fill="#ed7e97"/><path d="m198.255 390.629 1.628 15.01c-18.808 6.33-26.585-.723-26.585-.723l-2.532-9.223c-2.17-8.5-4.521-16.819-6.691-25.319s2.894-17.361 11.574-19.532c8.5-2.17 17.361 2.894 19.532 11.574.181.723.362 1.447.362 2.351v.181z" fill="#e26988"/><path d="m307.668 367.842c0 .723-.181 1.628-.362 2.351-2.17 8.5-4.34 17-6.691 25.319 0 0-11.936 12.659-29.117 7.596l1.808-12.659 2.713-25.861c.904-8.862 8.862-15.191 17.542-14.287 8.682.903 15.012 8.861 14.107 17.541z" fill="#e26988"/><path d="m313.094 474.904c0 .181 0 .181 0 0-3.798 9.042-47.382 13.021-49.01-4.34 0-.181 0-.543 0-.723 0-.181 0-.362 0-.723v-.362c0-.543.181-1.085.181-1.628 0-.181 0-.362.181-.543l9.223-2.713 8.862-2.713h.181c2.894.181 28.755 1.808 30.563 12.117.181.543.181 1.086-.181 1.628z" fill="#ed7e97"/><path d="m313.094 474.904c0 .181 0 .181 0 0 0 0-11.213-7.234-31.648-9.404-.543 0-1.085-.181-1.628-.181-3.255-.362-5.245-3.798-3.979-6.691l19.712-43.946-1.628 6.33c-3.617 13.383-7.234 26.766-11.032 40.148 2.894.181 28.755 1.808 30.563 12.117.002.542.002 1.085-.36 1.627z" fill="#f490aa"/><path d="m207.298 469.479c0 .904-.181 1.808-.362 2.713-4.16 16.819-50.637 11.032-49.01 1.085 1.808-10.128 27.67-11.936 30.563-12.117h.181l6.511 1.989 11.574 3.436c0 .181 0 .362.181.723.181.543.181 1.085.181 1.447v.181c.181.181.181.181.181.543 0-.181 0-.181 0 0z" fill="#ed7e97"/><path d="m195.542 463.149c.723 1.808-.543 3.617-2.532 3.617-.904 0-1.808 0-2.713 0-20.255.362-32.191 6.33-32.191 6.33 1.808-10.128 27.67-11.936 30.563-12.117-3.798-13.383-7.415-26.766-11.032-40.148l-1.628-6.33z" fill="#f490aa"/><path d="m207.117 472.011c-4.16 16.819-50.637 11.032-49.01 1.085 0 .181 26.223 8.5 49.01-1.085z" fill="#e26988"/><path d="m313.094 475.085c-3.798 9.042-47.382 13.021-49.01-4.521h.362s18.265 11.936 48.648 4.521z" fill="#e26988"/><path d="m315.084 473.096c-1.918-10.392-23.331-12.726-30.398-13.253 3.967-14.007 7.733-27.723 10.505-38.288l6.691-25.319c2.351-8.5 4.521-17 6.691-25.5.362-.723.543-1.809.543-2.532.542-4.521-.904-9.223-3.798-12.84-3.074-3.617-7.234-5.787-11.936-6.33-4.521-.542-9.223.904-12.84 3.798-3.617 3.074-5.787 7.234-6.33 11.936l-2.713 25.861-2.894 25.861c-1.628 15.373-3.798 33.457-6.149 51.723l.031.003c-.44 4.544 1.44 8.362 5.395 11.21 4.883 3.436 12.478 4.883 20.074 4.883 9.223 0 18.446-1.99 23.33-4.883 3.617-2.351 4.16-4.702 3.798-6.33zm-5.607 3.436c-7.596 5.064-30.202 7.053-39.606.362-3.436-2.532-4.702-5.788-3.798-9.947 2.531-18.447 4.16-34.904 5.607-49.914l2.894-26.042 2.713-26.042c.362-3.979 2.171-7.415 5.245-9.766 2.893-2.351 6.691-3.436 10.489-3.074 3.979.362 7.415 2.171 9.766 5.245 2.351 2.893 3.436 6.691 3.074 10.489 0 .723-.181 1.447-.362 2.17-2.17 8.5-4.521 16.819-6.691 25.319l-6.691 25.319c-2.894 11.031-6.873 25.499-11.032 40.148-.051.255-.054.507-.019.746.017.2.075.385.172.548.183.347.492.607.932.695.265.053.528.054.774.014 7.884.265 27.462 3.015 28.884 10.656.181 1.265-1.266 2.351-2.351 3.074z" fill="#bf4b6f"/><path d="m209.087 468.215.02-.002c-2.351-18.266-4.521-36.351-6.149-51.723l-2.894-25.861-2.713-25.861v-.181c-.181-.904-.362-1.628-.543-2.532-2.532-9.404-12.117-15.01-21.521-12.659-4.702 1.266-8.5 4.159-10.851 8.138-2.351 4.16-2.893 8.862-1.808 13.383 2.17 8.681 4.521 17 6.691 25.5l6.691 25.319c2.832 10.796 6.948 23.639 11.022 37.914-6.922.503-28.781 2.792-30.553 13.265-.181 1.628.181 3.979 3.798 6.33 4.702 3.075 13.926 5.064 23.149 5.064 7.595 0 15.191-1.447 20.255-5.064 3.905-2.655 5.782-6.528 5.406-11.03zm-7.395 8.498c-9.404 6.51-31.83 4.521-39.606-.362-1.266-.723-2.532-1.808-2.351-3.074 1.446-7.776 21.521-10.308 29.297-10.67.617 0 1.228-.527 1.397-1.241.054-.1.083-.22.05-.387 0-.208-.065-.415-.173-.606-4.107-14.44-8.368-28.662-11.222-39.541l-6.691-25.319c-2.351-8.319-4.521-16.819-6.691-25.319-1.99-7.595 2.532-15.553 10.308-17.542 7.595-1.99 15.553 2.532 17.542 10.308.181.723.362 1.266.362 1.989l2.713 26.042 2.894 25.861c1.628 15.192 3.798 33.457 6.149 51.723l.063-.007c.235 3.411-1.103 5.98-4.041 8.145z" fill="#bf4b6f"/><path d="m446.545 324.506c-34.909 37.723-72.428 31.85-103.948 14.824.243-.485 11.67-18.02 12.238-19.152 63.766 34.62 94.426-30.931 102.342-84.219 2.284-14.636 25.248-10.804 22.56 3.831-3.258 16.981-11.726 59.269-33.192 84.716z" fill="#ed7e97"/><path d="m389.438 329.444c15.125-.303 28.64-7.079 39.98-20.004 14.094-15.995 23.279-50.437 26.78-67.902-.082.97-2.551 32.914-12.205 54.576-9.733 21.825-32 40.801-54.555 33.33z" fill="#f490aa"/><path d="m446.545 324.506c-23.652 26.982-50.831 29.533-69.591 27.001-12.696-1.715-23.042-6.097-29.023-9.097-3.233-1.622-5.253-2.838-5.415-2.919l1.459-2.101 11.588-16.645c2.667 1.54 12.608 6.73 25.303 8.445.566.082 1.132.163 1.536.164s3.378 13.835 20.442 14.909 50.568-14.49 75.997-100.268c-2.363 13.584-12.37 57.73-32.296 80.511z" fill="#e26988"/><path d="m465.021 236.859c.486-.161 1.861-.887 3.805-2.745.648-.484 1.215-1.212 1.782-1.939 1.863-2.1 3.808-5.171 5.512-9.374 1.38-3.557 2.599-8.003 3.334-13.502.328-3.073-1.852-5.987-4.925-6.315-2.507-.246-4.854 1.207-5.909 3.308-.243.485-.325 1.051-.407 1.617-1.308 10.674-4.793 15.603-6.575 17.542-.486.565-1.053.888-1.134 1.05l.243-.081z" fill="#ed7e97"/><path d="m461.056 238.714c2.344.974 4.933.249 6.472-1.609.405-.404.729-1.05.973-1.535.243-.485.325-1.051.325-1.455.246-2.507-1.126-5.016-3.47-5.99-1.536-.568-2.829-1.621-3.878-2.755-.808-.81-1.534-1.781-1.938-2.591-1.453-2.347-2.178-4.532-2.097-4.694-.886-3.075-3.876-4.777-6.869-4.053s-4.777 3.876-4.053 6.869c.08.648 3.46 13.269 14.535 17.813z" fill="#ed7e97"/><path d="m477.55 242.538c-2.267 2.1-5.907 2.095-8.007-.172s-2.095-5.907.172-8.007c1.944-1.858 2.511-2.989 2.836-3.636-1.858-1.944-2.258-4.775-.719-7.037 1.702-2.586 5.342-3.39 7.928-1.688 1.859 1.135 3.958 3.807 4.196 7.365.238 3.559-1.142 7.116-4.301 10.994-.486.565-1.296 1.373-2.105 2.181z" fill="#ed7e97"/><path d="m479.168 241.731c-.162-.081-.162-.081-.323-.162-.727-.567-.733-2.321-.004-2.967 2.916-3.393 4.06-5.924 3.821-9.079-.319-2.993-2.015-5.26-3.55-6.232-.565-.486-1.293-.649-2.102-.65s-1.616-.811-1.615-1.62.811-1.616 1.62-1.615c1.375.083 2.587.489 3.638 1.218 2.101 1.459 4.685 4.374 5.003 8.58.399 4.044-1.224 8.086-4.626 12.045-.487.565-1.377.725-1.862.482z" fill="#bf4b6f"/><path d="m475.958 223.125.162-.323c1.38-3.557 2.599-8.003 3.334-13.502.328-3.073-1.852-5.987-4.925-6.315-2.507-.246-4.854 1.207-5.909 3.308.89-.161 10.274-1.524 7.338 16.832z" fill="#f490aa"/><path d="m446.44 221.063c.729-1.05 4.294-5.332 13.1 1.716-1.453-2.347-2.178-4.532-2.097-4.694-.886-3.075-3.876-4.777-6.869-4.053-3.074.886-5.019 3.957-4.134 7.031z" fill="#f490aa"/><path d="m460.994 227.024c.89-1.825-.569-.361-.731-.442-.727-.567-.645-1.538-.078-2.265 1.701-1.777 5.023-6.383 6.25-16.491.164-1.941 1.218-3.638 2.837-4.849s3.48-1.694 5.421-1.529c1.941.164 3.638 1.218 4.849 2.837s1.694 3.48 1.529 5.421c-.736 5.903-2.118 11.077-4.064 15.361-.405.808-1.215 1.212-2.023.806-.808-.405-1.212-1.215-.806-2.023 1.866-4.122 3.085-8.973 3.821-14.472.163-1.132-.159-2.103-.886-3.075-.565-.89-1.697-1.458-2.667-1.54-1.132-.163-2.103.159-3.075.886-.89.565-1.458 1.696-1.54 2.667-1.39 11.24-5.029 16.268-7.054 18.287-.308.227-1.136.745-1.783.421z" fill="#bf4b6f"/><path d="m456.204 237.899-.162-.081c-8.404-5.834-11.059-15.867-11.22-16.352-.483-1.861-.318-3.802.735-5.499 1.054-1.697 2.511-2.989 4.534-3.391 3.964-1.046 7.843 1.305 8.89 5.269 0 0 .842 3.891 3.508 6.644.646.729.849 1.611.201 2.096-.729.646-1.942.645-2.427-.003-3.15-3.401-4.195-7.77-4.276-8.013-.563-2.104-2.907-3.482-5.011-2.918-1.133.241-1.942 1.049-2.591 1.938-.487.97-.65 2.102-.328 3.073-.001.404 2.72 9.011 10.073 14.116.727.567.744 1.831.338 2.639-.485.565-1.456.888-2.264.482z" fill="#bf4b6f"/><path d="m347.282 343.704c-3.395-1.703-5.415-2.919-5.577-3-.323-.162-.565-.486-.727-.971.001-.404.001-.809.163-1.132l12.157-18.99c.081-.162.081-.162.162-.323.567-.727 1.457-.888 2.265-.482.162.081 10.99 6.728 25.384 8.688 18.275 2.289 34.055-4.16 47.177-19.024 15.552-17.691 25.069-58.441 27.515-72.592.244-.889.973-1.535 1.862-1.292.889.244 1.535.973 1.292 1.862-2.446 14.555-12.287 55.951-28.326 74.208-13.77 15.753-30.521 22.524-49.928 20.072-12.13-1.634-21.748-6.257-25.223-8.202l-10.536 16.566c.97.487 2.182 1.297 3.798 2.108 6.304 3.163 16.409 7.22 28.538 8.854 18.194 2.451 44.887.06 68.135-26.518 23.004-26.093 32.46-81.643 32.787-83.907.244-.889.973-1.535 1.862-1.292.889.244 1.535.973 1.292 1.862-.408 2.426-10.026 58.704-33.598 85.524-24.138 27.547-51.964 30.179-70.886 27.565-12.614-1.878-23.122-6.341-29.588-9.584z" fill="#bf4b6f"/><path d="m425.779 301.652c0 27.127-22.064 49.191-49.191 49.191-.543 0-1.266 0-1.808 0-5.787 20.617-24.776 35.808-47.382 35.808-9.042 0-17.542-2.351-24.776-6.691-9.042 12.298-23.51 20.255-39.787 20.255-13.021 0-24.776-5.064-33.457-13.202-8.862 8.138-20.617 13.202-33.457 13.202-15.372 0-29.117-7.053-38.159-18.085-6.33 2.894-13.202 4.521-20.617 4.521-19.532 0-36.35-11.393-44.308-27.67-.543-1.266-1.266-2.532-1.628-3.979-1.266.181-2.713.543-3.979.723-1.808.181-3.798.362-5.787.362-19.532 0-36.35-11.393-44.308-27.851-3.074-6.511-4.883-13.744-4.883-21.521 0-8.862 2.351-17 6.33-24.234-6.511-8.319-10.308-18.808-10.308-30.202 0-22.606 15.372-41.776 36.17-47.563-1.266-4.34-1.808-8.862-1.808-13.564 0-27.127 22.063-49.191 49.191-49.191 6.872 0 13.564 1.447 19.532 3.979 3.798-23.51 24.053-41.595 48.648-41.595 16.095 0 30.382 7.776 39.425 19.712 8.5-14.649 25.499-24.415 43.584-24.415 25.68 0 46.84 19.712 49.01 44.85 4.883-1.628 10.128-2.532 15.553-2.532 27.127 0 49.191 22.063 49.191 49.191v1.266c3.798.904 7.415 2.17 10.67 3.798 16.457 7.957 27.67 24.776 27.67 44.308 0 8.681-2.17 16.819-6.149 23.872 10.308 9.225 16.818 22.427 16.818 37.257z" fill="#fc9db8"/><path d="m402.992 278.865c0 27.127-22.063 49.191-49.191 49.191-.543 0-1.266 0-1.809 0-5.787 20.617-24.776 35.808-47.382 35.808-9.042 0-17.542-2.351-24.776-6.691-9.042 12.298-23.51 20.255-39.787 20.255-13.021 0-24.776-5.064-33.457-13.202-8.862 8.138-20.617 13.202-33.457 13.202-15.372 0-29.117-7.053-38.159-18.085-6.33 2.894-13.202 4.521-20.617 4.521-7.776 0-15.01-1.808-21.521-4.883-1.989-.904-3.979-2.17-5.787-3.255-8.5-5.606-15.01-13.744-18.627-23.329-3.436.723-7.234 1.085-10.851.904-7.234-.181-14.287-1.989-20.436-4.883-3.074-6.511-4.883-13.744-4.883-21.521 0-8.862 2.351-17 6.33-24.234-6.511-8.319-10.308-18.808-10.308-30.202 0-22.606 15.372-41.776 36.17-47.563-1.266-4.34-1.808-8.862-1.808-13.564 0-27.127 22.063-49.191 49.191-49.191 6.872 0 13.564 1.447 19.532 3.979 3.798-23.51 24.053-41.595 48.648-41.595 16.095 0 30.382 7.776 39.425 19.712h1.085c8.5-14.649 24.415-24.414 42.499-24.414 25.68 0 46.84 19.712 49.01 44.85 4.883-1.628 10.128-2.532 15.553-2.532 27.127 0 49.191 22.063 49.191 49.191v1.266c3.798.904 7.415 2.17 10.67 3.798 3.074 6.511 4.883 13.744 4.883 21.521 0 8.681-2.17 16.819-6.149 23.872 10.308 8.862 16.818 22.245 16.818 37.074z" fill="#ffa6bd"/><path d="m376.588 191.335c-16.457-53.169-68.361-38.34-68.361-38.34s-5.606-28.212-36.712-36.712c-30.925-8.319-50.457 18.627-50.457 18.627s-16.276-17.542-43.404-14.649c-27.127 2.894-37.978 37.978-37.978 37.978s-22.968-7.957-49.01 5.606c-25.861 13.564-19.712 50.457-19.712 50.457-51.903 27.127-33.095 67.637-32.914 68.18-6.511-8.319-10.308-18.808-10.308-30.202 0-22.606 15.372-41.776 36.17-47.563-1.266-4.34-1.808-8.862-1.808-13.564 0-27.127 22.063-49.191 49.191-49.191 6.872 0 13.564 1.447 19.532 3.979 3.798-23.51 24.053-41.595 48.648-41.595 16.095 0 30.382 7.776 39.425 19.712h1.085c8.5-14.649 24.415-24.415 42.499-24.415 25.68 0 46.84 19.712 49.01 44.85 4.883-1.628 10.128-2.532 15.553-2.532 27.488.183 49.551 22.246 49.551 49.374z" fill="#ffb8cc"/><path d="m241.857 375.619c-.723-.543-.723-1.628-.181-2.17 8.681-10.67 0-27.489-.181-27.67-.362-.723-.181-1.628.362-1.989 13.744-10.489 21.34-22.064 22.968-34.361 1.808-15.191-6.872-26.223-6.872-26.404-.543-.543-.543-1.447.181-2.17 18.627-19.351.723-42.499-.181-43.584-.543-.723-.362-1.628.181-2.17.723-.543 1.628-.362 2.17.181.181.181 19.712 25.5.723 46.659 2.351 3.255 8.319 13.744 6.691 27.489-1.628 12.84-9.223 24.776-23.149 35.627 1.989 4.34 7.957 19.351-.723 30.021-.782 1.007-1.627.722-1.989.541z" fill="#ed7e97"/><path d="m262.835 401.715c-12.415 0-24.246-4.493-33.467-12.681-9.391 8.188-21.214 12.681-33.447 12.681-14.899 0-28.896-6.457-38.582-17.756-6.448 2.782-13.236 4.192-20.194 4.192-19.267 0-37.188-11.191-45.656-28.511-.181-.417-.345-.767-.511-1.12-.264-.561-.549-1.168-.798-1.818-.219.043-.439.087-.66.131-.709.142-1.418.283-2.08.377-1.842.187-3.917.377-5.998.377-19.604 0-37.099-10.996-45.659-28.697-3.341-7.079-5.032-14.535-5.032-22.175 0-8.381 2.035-16.48 6.049-24.092-6.563-8.728-10.027-19.198-10.027-30.344 0-22.251 14.662-42.018 35.835-48.587-.99-3.886-1.473-8.005-1.473-12.54 0-27.951 22.74-50.691 50.691-50.691 6.221 0 12.536 1.171 18.382 3.399 4.733-23.876 25.387-41.016 49.798-41.016 15.315 0 29.507 6.75 39.27 18.596 9.182-14.22 26.104-23.299 43.739-23.299 25.459 0 47.204 19.343 50.311 44.371 4.642-1.363 9.427-2.053 14.253-2.053 27.951 0 50.69 22.74 50.69 50.691v.093c3.563.924 6.869 2.143 9.842 3.629 17.572 8.496 28.499 25.991 28.499 45.65 0 8.332-1.991 16.45-5.769 23.559 10.61 9.916 16.438 23.211 16.438 37.57 0 27.951-22.74 50.69-50.691 50.69h-.685c-6.457 21.141-26.238 35.809-48.505 35.809-8.713 0-17.111-2.149-24.381-6.228-9.644 12.419-24.565 19.793-40.182 19.793zm-33.457-16.202c.369 0 .738.136 1.026.405 8.802 8.252 20.319 12.797 32.431 12.797 15.113 0 29.535-7.344 38.579-19.644.459-.623 1.318-.795 1.979-.397 7.064 4.237 15.365 6.478 24.005 6.478 21.311 0 40.2-14.275 45.938-34.714.182-.647.772-1.095 1.444-1.095h1.808c26.297 0 47.691-21.394 47.691-47.69 0-13.887-5.796-26.722-16.318-36.14-.525-.47-.652-1.242-.307-1.855 3.896-6.905 5.956-14.905 5.956-23.134 0-18.498-10.278-34.958-26.823-42.958-3.103-1.551-6.584-2.79-10.364-3.689-.677-.161-1.153-.765-1.153-1.459v-1.266c0-26.297-21.394-47.691-47.69-47.691-5.12 0-10.193.826-15.078 2.455-.438.146-.914.083-1.299-.169-.384-.252-.631-.667-.67-1.125-2.104-24.381-22.977-43.479-47.517-43.479-17.345 0-33.943 9.29-42.286 23.668-.252.434-.705.713-1.206.744-.5.034-.984-.191-1.288-.591-9.205-12.15-23.139-19.118-38.229-19.118-23.555 0-43.391 16.963-47.167 40.334-.074.455-.352.851-.756 1.074-.402.223-.886.249-1.311.068-5.952-2.525-12.503-3.86-18.946-3.86-26.297 0-47.691 21.394-47.691 47.691 0 4.812.572 9.112 1.748 13.144.112.385.066.799-.129 1.149-.195.351-.522.608-.909.716-20.649 5.746-35.072 24.71-35.072 46.118 0 10.804 3.454 20.928 9.989 29.277.37.474.422 1.121.133 1.647-4.077 7.413-6.145 15.323-6.145 23.512 0 7.193 1.595 14.219 4.739 20.881 8.049 16.643 24.51 26.99 42.953 26.99 1.943 0 3.928-.184 5.637-.354.548-.079 1.2-.211 1.852-.341.704-.141 1.408-.281 2.065-.375.761-.102 1.481.376 1.667 1.121.222.89.614 1.724 1.03 2.607.181.385.359.765.522 1.146 7.937 16.229 24.8 26.761 42.929 26.761 6.902 0 13.629-1.476 19.993-4.386.619-.283 1.353-.114 1.784.413 9.134 11.145 22.619 17.536 36.999 17.536 11.928 0 23.45-4.548 32.442-12.807.287-.263.651-.395 1.015-.395z" fill="#bf4b6f"/><path d="m151.794 233.291c-7.957 19.712-.904 41.053 15.553 47.563 16.457 6.511 36.17-4.159 43.946-23.872 7.957-19.712.904-41.053-15.553-47.563s-35.988 4.16-43.946 23.872z" fill="#fff"/><path d="m177.475 284.29c-3.617 0-7.234-.723-10.67-1.989-17.181-6.872-24.595-29.117-16.457-49.733 3.979-9.947 10.851-17.904 19.532-22.606s18.085-5.425 26.585-2.17c17.181 6.872 24.595 29.117 16.457 49.733-3.979 9.947-10.851 17.904-19.532 22.606-5.245 2.713-10.671 4.159-15.915 4.159zm8.138-75.232c-4.702 0-9.585 1.266-14.287 3.798-7.957 4.34-14.468 11.755-18.085 20.978-7.596 18.808-.904 39.244 14.649 45.574 7.415 3.074 15.915 2.351 23.872-1.989s14.468-11.755 18.085-20.978c7.596-18.808.904-39.244-14.649-45.574-3.075-1.267-6.33-1.809-9.585-1.809z" fill="#bf4b6f"/><ellipse cx="179.939" cy="250.357" fill="#22213f" rx="24.056" ry="20.8" transform="matrix(.138 -.991 .991 .138 -92.824 394.082)"/><path d="m180.368 241.249c-1.266 3.074-5.064 4.521-8.681 3.074s-5.425-5.064-4.16-8.138c1.266-3.074 5.064-4.521 8.681-3.074 3.437 1.446 5.245 5.063 4.16 8.138z" fill="#fff"/><path d="m342.589 230.398c8.319 19.532 1.808 41.053-14.468 47.925s-36.17-3.255-44.489-22.787-1.809-41.053 14.468-47.925c16.096-7.053 36.17 3.255 44.489 22.787z" fill="#fff"/><path d="m317.451 281.94c-14.106 0-28.574-9.947-35.265-25.861-8.681-20.255-1.808-42.68 15.191-50.095 17-7.234 37.978 3.255 46.659 23.691 8.681 20.255 1.809 42.68-15.191 50.095-3.798 1.446-7.596 2.17-11.394 2.17zm-8.681-75.052c-3.436 0-6.872.723-10.128 1.989-15.372 6.511-21.521 27.127-13.564 45.755s26.946 28.574 42.499 21.883c15.372-6.511 21.521-27.127 13.564-45.755-6.328-14.649-19.53-23.872-32.371-23.872z" fill="#bf4b6f"/><ellipse cx="308.469" cy="246.877" fill="#22213f" rx="20.801" ry="24.056" transform="matrix(.987 -.16 .16 .987 -35.604 52.672)"/><path d="m293.76 234.557c-1.266 3.074.723 6.691 4.159 8.138 3.617 1.447 7.415 0 8.681-3.074s-.723-6.691-4.159-8.138c-3.617-1.447-7.415 0-8.681 3.074z" fill="#fff"/><path d="m285.803 169.994c10.489 3.617 20.436 2.713 22.064-1.989 1.628-4.883-5.425-11.755-15.915-15.372-10.489-3.617-20.436-2.713-22.063 1.989-1.629 4.702 5.425 11.575 15.914 15.372z" fill="#ed7e97"/><path d="m298.1 173.792c-3.979 0-8.319-.904-12.659-2.351-5.245-1.808-9.947-4.521-13.202-7.596-3.436-3.436-4.883-6.872-3.798-9.766s4.34-4.883 9.042-5.245c4.34-.362 9.766.362 15.01 2.17 5.245 1.808 9.947 4.521 13.202 7.596 3.436 3.436 4.883 6.872 3.798 9.766s-4.34 4.883-9.042 5.245c-.723.181-1.627.181-2.351.181zm-18.265-22.063c-.723 0-1.447 0-1.989.181-3.436.362-5.787 1.447-6.33 3.074-.543 1.628.543 3.979 3.074 6.511 2.894 2.713 7.053 5.245 11.936 6.872 4.883 1.628 9.766 2.532 13.744 2.17 3.436-.362 5.787-1.447 6.33-3.074.543-1.628-.543-3.979-3.074-6.511-2.894-2.713-7.053-5.245-11.936-6.872-4.16-1.628-8.138-2.351-11.755-2.351z" fill="#bf4b6f"/><path d="m208.4 178.675c10.308-4.34 17-11.755 15.01-16.457-1.989-4.702-11.936-5.064-22.244-.723-10.308 4.34-17 11.755-15.01 16.457 1.989 4.702 11.935 5.064 22.244.723z" fill="#ed7e97"/><path d="m194.836 183.377c-.181 0-.543 0-.723 0-4.883-.181-8.138-1.808-9.404-4.702s0-6.511 3.255-10.128c3.074-3.255 7.415-6.33 12.659-8.5 11.213-4.702 21.883-4.16 24.234 1.628 2.351 5.606-4.521 13.744-15.915 18.447-4.883 2.17-9.946 3.255-14.106 3.255zm19.713-23.329c-3.617 0-7.957.904-12.84 2.894-4.702 1.989-8.862 4.702-11.574 7.596-2.351 2.532-3.255 5.064-2.532 6.691.723 1.628 3.074 2.713 6.511 2.713 3.979.181 8.862-.904 13.564-2.894 10.128-4.34 15.553-11.032 14.106-14.287-.725-1.628-3.257-2.713-7.235-2.713z" fill="#bf4b6f"/><g fill="#ed7e97"><path d="m161.922 148.293c-.362 0-.543 0-.904-.362-.723-.543-.904-1.447-.362-2.17.181-.181 12.659-18.085 33.457-9.223.723.362 1.266 1.266.904 2.17-.362.723-1.266 1.266-2.17.904-18.447-7.776-29.117 7.415-29.659 8.138-.181.181-.724.543-1.266.543z"/><path d="m177.836 352.832c-3.617 0-14.468-1.085-18.447-13.383-.181-.904.181-1.808 1.085-1.989s1.808.181 1.989 1.085c3.798 12.117 15.553 11.213 16.095 11.032.904 0 1.628.543 1.808 1.447 0 .904-.543 1.628-1.447 1.809.002-.182-.359-.001-1.083-.001z"/><path d="m290.324 368.927c-2.17 0-4.521-.362-7.234-1.447-.904-.362-1.266-1.266-.904-1.989.362-.904 1.266-1.266 1.989-.904 11.936 4.521 18.447-5.425 18.627-5.787.543-.723 1.447-.904 2.17-.543.723.543.904 1.447.543 2.17.181.001-5.244 8.5-15.191 8.5z"/><path d="m122.497 299.843c-.181 0-.362 0-.543-.181-.181 0-13.925-5.425-11.574-20.617.181-.904.904-1.447 1.808-1.266s1.447.904 1.266 1.808c-1.989 12.659 9.042 17 9.404 17.181.904.362 1.266 1.266.904 1.989.001.725-.723 1.086-1.265 1.086z"/><path d="m339.334 311.237c-.904 0-1.628-.723-1.628-1.447 0-.904.543-1.628 1.447-1.628 12.84-.723 14.468-12.479 14.649-13.021.181-.904.904-1.447 1.808-1.447.904.181 1.447.904 1.447 1.808-.181.182-2.351 14.831-17.723 15.735z"/><path d="m93.561 223.345c-.904 0-1.628-.723-1.628-1.628-.543-20.978 15.553-26.042 20.074-27.127 1.628-7.596 5.064-13.383 10.128-16.819 8.138-5.425 17.361-3.436 17.904-3.436.904.181 1.447 1.085 1.266 1.808-.181.904-1.085 1.447-1.808 1.266-.181 0-8.5-1.628-15.372 2.894-4.702 3.074-7.596 8.5-9.042 15.734-.181.723-.723 1.266-1.447 1.266-.723.181-18.989 2.713-18.447 24.053 0 1.265-.724 1.989-1.628 1.989z"/><path d="m384.184 232.025c-.181 0-.362 0-.543 0-.904-.181-1.266-1.085-1.085-1.989 0 0 2.532-8.319-1.628-15.553-2.713-4.883-7.776-8.319-14.83-10.308-.723-.181-1.085-.723-1.266-1.447 0-.723-1.085-19.17-22.244-20.436-.904 0-1.628-.723-1.447-1.628 0-.904.723-1.628 1.628-1.447 20.978 1.266 24.595 17.723 25.138 22.425 7.415 2.17 12.84 6.149 15.915 11.574 4.702 8.5 1.989 17.723 1.808 18.085.001.182-.722.724-1.446.724z"/><path d="m183.804 374.172c-.904 0-1.808 0-2.532-.181-6.511-1.085-10.851-5.787-12.479-7.776-20.978 4.702-28.393-15.915-28.393-16.095-.362-.904.181-1.808.904-1.989.904-.362 1.808.181 1.989.904s6.872 18.808 25.68 13.744c.723-.181 1.447.181 1.808.723 0 0 3.979 6.149 11.032 7.234 4.702.723 9.947-1.085 15.191-5.606.723-.543 1.628-.543 2.17.181s.543 1.628-.181 2.17c-5.061 4.521-10.125 6.691-15.189 6.691z"/><path d="m329.206 368.747c-6.511 0-11.574-1.628-11.755-1.628-.904-.181-1.266-1.085-1.085-1.989s1.085-1.266 1.989-1.085c1.085.362 25.138 7.776 32.553-13.021.362-.904 1.266-1.266 1.989-.904.904.362 1.266 1.266.904 1.989-4.701 13.744-15.914 16.638-24.595 16.638z"/><path d="m378.94 261.504c-.181 0-.362 0-.362 0-.904-.181-1.266-1.085-1.085-1.989.362-1.085 7.053-25.5-13.925-32.191-.904-.181-1.266-1.085-1.085-1.989s1.085-1.266 1.989-1.085c23.872 7.776 16.095 35.808 16.095 36.17-.362.722-.904 1.084-1.627 1.084z"/><path d="m106.582 363.502c-61.308 23.329-95.307-6.872-58.052-70.531 14.468-22.244 20.255-42.318 36.531-28.031 5.064 9.223.904 11.574-5.425 21.159-9.766 13.021-26.946 46.659-23.51 57.148 5.245 10.489 28.574 3.074 40.872-.362 12.297-4.702 20.978 14.106 9.584 20.617z"/><path d="m118.518 330.407c-.362.723-.723 1.266-1.266 1.808-.543.362-1.085.723-1.628 1.085-1.085.543-2.17.904-3.074 1.447-1.085.723-2.17 1.447-2.894 2.17-1.447 1.447-2.351 2.894-3.074 4.159-1.085 2.351-1.085 4.159-1.085 4.521l-3.979.181-7.415.181c0-.362 0-3.436 1.266-7.415 1.808-5.245 5.968-11.936 15.915-16.095 2.894-1.266 6.33.181 7.415 3.074.723 1.99.543 3.618-.181 4.884z"/><path d="m125.933 337.46c0 1.628-.904 3.255-2.351 4.34-.362.362-.904.543-1.266.723-.543.181-1.085.543-1.628.723-1.266.723-2.532 1.266-3.436 1.989-4.34 3.074-5.968 6.691-6.149 7.415l-7.053-2.17-3.979-1.266c0-.181.543-1.447 1.447-3.255.723-1.266 1.808-3.074 3.255-4.702.362-.543.904-.904 1.266-1.447 1.989-1.989 4.34-3.979 7.415-5.787 1.085-.543 2.351-1.266 3.617-1.809.362-.181.543-.181.904-.362 2.894-1.085 6.33.362 7.415 3.255.362.725.543 1.629.543 2.353z"/><path d="m128.103 351.566c-.362.362-.723.543-1.085.904-.723.543-1.628.723-2.713.904-8.862.543-15.01 7.957-15.191 8.138-1.989 2.532-5.606 2.894-7.957.904-2.532-1.989-2.894-5.606-.904-7.957.181-.181 1.447-1.628 3.617-3.617 1.808-1.628 4.16-3.436 7.234-5.064 3.436-1.808 7.596-3.436 12.479-3.617h.181c.723 0 1.447 0 2.17.181 2.17.723 3.798 2.713 3.979 5.064-.182 1.447-.725 3.075-1.81 4.16z"/><path d="m258.675 209.6c-.904-.362-1.266-1.266-1.085-1.989 9.947-30.021-14.106-41.776-15.191-42.318-.543-.362-.904-.904-.904-1.628.904-11.393-.904-19.893-5.787-24.957-3.558-3.832-7.944-4.764-10.181-4.991-.803-.081-1.429-.726-1.474-1.533-.055-.991.776-1.806 1.764-1.717 2.819.254 7.915 1.329 12.061 5.89 5.245 5.606 7.415 14.468 6.691 26.223 4.883 2.713 25.5 16.457 15.915 45.574-.25 1.446-1.628 1.446-1.809 1.446z"/></g><path d="m93.019 367.842c-2.713.723-5.606 1.266-8.862 1.809-16.095 2.894-28.936 1.628-37.616-3.436-7.053-4.159-11.574-10.67-13.021-18.989-2.351-13.744 2.532-32.01 15.01-54.254 8.681-15.553 17.904-27.67 18.266-28.212 3.798-5.064 11.032-5.968 15.915-2.17.904.723 1.628 1.447 2.351 2.351s-8.681-3.617-18.627 12.84c-9.766 16.457-32.372 56.425-23.329 75.956 9.041 19.35 49.008 14.105 49.913 14.105z" fill="#f490aa"/><path d="m90.848 344.875c-43.404 17.723-44.85 4.159-36.531-22.425 8.319-26.585 32.553-52.988 32.553-52.988l.181 3.074c-.181 2.17-.904 4.159-2.351 5.968 0 0-2.17 2.894-5.425 7.596-3.074 4.702-7.234 11.032-11.213 18.085-9.223 16.819-13.744 31.106-12.298 39.063.362 1.809 1.085 2.532 2.17 3.255 6.33 3.616 21.521 1.446 32.914-1.628z" fill="#e26988"/><path d="m45.817 367.48c-7.415-4.34-12.298-11.213-13.925-20.074-2.532-14.106 2.532-32.734 15.191-55.34 8.681-15.734 17.904-27.851 18.266-28.393 4.34-5.787 12.479-6.872 18.266-2.532s6.872 12.479 2.532 18.266c0 .181-8.681 11.393-16.457 25.5-9.042 16.457-13.564 30.382-12.117 37.978.181 1.447.723 1.808 1.266 2.17 5.968 3.436 22.425 1.266 34.723-2.713.904-.181 1.808.181 1.989 1.085s-.181 1.808-1.085 1.989c-9.404 2.894-29.117 7.234-37.436 2.532-1.628-.904-2.532-2.17-2.894-4.34-1.447-8.319 3.074-22.968 12.479-40.148 7.957-14.287 16.638-25.861 16.638-25.861 3.255-4.34 2.351-10.489-1.808-13.744-4.34-3.255-10.489-2.351-13.744 1.809-.362.543-9.404 12.479-18.085 28.031-12.298 22.064-17.181 39.967-14.83 53.169 1.447 7.776 5.606 13.925 12.298 17.723 8.5 4.883 23.504 5.562 36.531 3.255 10.851-1.809 19.532-4.883 19.893-5.064 2.003-.842 3.436-1.989 4.159-2.893.543-.723 1.628-.723 2.17-.181.723.543.723 1.628.181 2.17-.904 1.085-1.808 1.808-3.074 2.532-.723.543-37.05 15.828-61.127 3.074z" fill="#bf4b6f"/><path d="m118.699 325.886s-14.468-.181-23.329 12.84c1.808-5.245 5.968-11.936 15.915-16.095 2.893-1.086 6.329.361 7.414 3.255z" fill="#f490aa"/><path d="m125.933 337.46c-.362 0-5.425-3.255-19.351 3.798-.723.362-1.447 0-1.808 0-.543-.181-.181-.723 1.266-1.447.181-.181 1.447-1.085 3.436-2.713.904-.723 1.808-1.447 2.894-2.17.362-.181.723-.543 1.085-.723 1.447-1.085 3.255-2.351 4.883-3.436-.362.723-.723 1.266-1.266 1.808.362-.181.543-.181.904-.362 2.894-1.085 6.33.362 7.415 3.255.361.362.542 1.266.542 1.99z" fill="#f490aa"/><path d="m128.103 351.566c.181-4.702-5.968-5.968-11.032-6.149-3.074-.181-5.787.181-5.968.181l9.404-2.17 5.245-1.266c2.17.723 3.798 2.713 3.979 5.064 0 1.627-.543 3.255-1.628 4.34z" fill="#f490aa"/><path d="m94.104 345.417h-.181c-.904-.181-1.447-.904-1.447-1.809.543-4.702 3.436-16.457 18.085-22.425 1.808-.723 3.798-.723 5.606 0s3.255 2.17 3.979 3.979c1.085 2.894.362 6.149-1.808 8.138-.723.543-1.628.543-2.17-.181s-.543-1.628.181-2.17c1.266-1.085 1.628-3.074 1.085-4.521-.362-1.085-1.266-1.808-2.17-2.17-1.085-.362-2.17-.362-3.074 0-13.202 5.245-15.734 15.734-16.276 19.893-.191 1.019-1.087 1.266-1.81 1.266z" fill="#bf4b6f"/><path d="m103.508 344.332c-.362 0-.723-.181-.904-.362-.723-.543-.904-1.447-.362-2.17 2.532-3.436 7.415-8.319 15.191-11.393 1.808-.723 3.798-.723 5.606.181 1.808.723 3.074 2.17 3.798 3.979 1.085 3.074.525 5.806-2.007 7.795-.723.543-1.972 1.067-2.514.343-.543-.723-.362-1.628.362-2.17 1.447-1.085 1.989-3.074 1.266-4.702-.904-2.17-3.255-3.074-5.245-2.351-7.234 2.713-11.574 7.053-13.744 10.308-.362.361-.905.542-1.447.542z" fill="#bf4b6f"/><path d="m102.745 364.362c-.362 0 5.827-1.764 5.465-1.945-.723-.543-1.622-1.383-1.08-1.925 0 0 7.59-8.383 17.175-8.926.723 0 1.266-.181 1.808-.543 1.266-.723 1.989-2.17 1.989-3.798 0-1.085-.543-2.17-1.447-2.894-.904-.723-1.808-1.085-2.894-1.085-4.702.362-9.223 1.808-13.564 4.521-.723.543-1.808.181-2.17-.543-.543-.723-.181-1.808.543-2.17 4.883-2.894 9.947-4.521 15.01-4.883 1.989-.181 3.798.543 5.245 1.809s2.351 3.074 2.532 5.064c.181 2.713-1.085 5.245-3.436 6.691-1.085.543-2.17.904-3.436 1.085-8.138.543-15.336 7.804-15.336 7.985-.361.182-6.042 1.557-6.404 1.557z" fill="#bf4b6f"/><path d="m237.155 313.226c-22.968-5.968-28.031-26.766-24.776-37.074.723-2.351 1.989-4.159 3.617-5.064 9.042-5.425 13.744 5.968 29.478 10.128 15.915 3.979 25.319-3.617 30.744 5.425.904 1.447 1.085 3.617.543 6.149-2.171 10.309-16.096 26.404-39.606 20.436z" fill="#22213f"/><path d="m277.303 290.801c-7.776 3.617-20.798 4.702-34.542 1.085-13.744-3.436-24.595-10.67-29.84-17.542.723-2.351 1.447-2.532 3.074-3.436 9.042-5.425 13.744 5.968 29.478 10.128 15.915 3.979 25.319-3.617 30.744 5.425.905 1.446 1.448 1.989 1.086 4.34z" fill="#fff"/><path d="m247.101 316.12c-3.074 0-6.511-.362-10.128-1.266-13.021-3.255-19.532-11.032-22.787-16.819-3.979-7.053-5.245-15.915-3.074-22.244.904-2.894 2.351-4.883 4.16-5.968 5.968-3.617 10.489-.543 15.915 2.713 3.979 2.532 8.319 5.425 14.83 7.053s11.755 1.266 16.457.904c6.33-.362 11.755-.904 15.191 5.245 1.085 1.808 1.266 4.34.723 7.234-1.085 5.064-5.245 13.021-13.744 18.266-3.979 2.531-9.766 4.882-17.543 4.882zm-26.404-44.851c-1.266 0-2.532.362-3.798 1.266-1.085.723-2.17 2.17-2.894 4.159-1.447 4.34-1.447 11.936 2.894 19.712 2.894 5.245 8.862 12.298 20.798 15.372 11.755 3.074 20.255 0 25.319-3.255 7.596-4.702 11.393-11.755 12.298-16.276.362-2.17.362-3.979-.362-5.064-2.532-4.159-5.787-4.159-12.298-3.617-4.702.362-10.489.723-17.542-1.085s-11.936-4.883-15.915-7.596c-3.617-2.169-6.149-3.616-8.5-3.616z" fill="#bf4b6f"/><path d="m460.695 140.855c0 7.785-3.035 14.779-8.049 20.057-4.618 4.75-7.917 10.82-9.633 17.154l-.792 3.035h-20.717l-.792-2.771c-.924-3.167-2.111-6.334-3.695-9.237-1.583-2.903-3.695-5.674-5.938-8.181-.66-.66-1.188-1.32-1.715-1.979-3.959-4.882-6.334-11.216-6.334-18.078 0-15.439 12.404-28.238 27.711-28.766 11.612-.396 21.905 6.07 26.787 15.571 1.98 3.958 3.167 8.444 3.167 13.195z" fill="#ffd56c"/><path d="m460.695 140.855c0 7.785-3.035 14.779-8.049 20.057-4.618 4.75-7.917 10.82-9.633 17.154l-.528 2.111-.264.924h-19.001c-1.452-4.355-3.431-8.445-6.202-12.008-.132-.132-.264-.396-.396-.528-.792-.924-1.583-1.979-2.507-2.903-1.979-1.979-3.563-4.223-4.882-6.73-2.111-3.959-3.167-8.445-3.167-13.328 0-15.439 12.404-28.238 27.711-28.766 9.105-.396 17.286 3.563 22.828 9.765.264.396.66.66.924 1.056 1.979 3.959 3.166 8.445 3.166 13.196z" fill="#ffca3b"/><path d="m460.695 140.855c0 7.785-3.035 14.779-8.049 20.057-4.618 4.75-7.917 10.82-9.633 17.154l-.528 2.111c-1.32.264-2.639.528-3.959.924h-15.306c-1.452-4.355-3.431-8.445-6.202-12.008-.132-.132-.264-.396-.396-.528v-.132s16.362 4.355 28.634-8.181c11.084-11.348 11.48-30.086 11.348-33.649.264.396.66.66.924 1.056 1.98 3.959 3.167 8.445 3.167 13.196z" fill="#eab021"/><path d="m442.221 182.289h-20.717c-.528 0-.924-.396-1.188-.924l-.792-2.771c-1.715-6.466-5.014-12.272-9.369-16.89-5.41-5.674-8.313-13.064-8.313-20.849 0-15.967 12.932-29.426 28.898-29.954 8.313-.264 16.099 2.639 22.037 8.313s9.237 13.459 9.237 21.641c0 7.785-3.035 15.175-8.445 20.849-4.355 4.618-7.653 10.293-9.369 16.758l-.792 3.035c-.263.396-.659.792-1.187.792zm-19.925-2.375h19.002l.528-2.111c1.847-6.73 5.278-12.8 9.897-17.682 5.014-5.146 7.785-12.008 7.785-19.266 0-7.653-3.035-14.647-8.445-19.925-5.542-5.278-12.668-8.049-20.321-7.785-14.647.528-26.655 12.932-26.655 27.711 0 7.258 2.771 13.987 7.653 19.266 4.618 4.882 8.181 11.084 10.029 17.946z" fill="#e29700"/><path d="m427.838 180.177c-.66 0-1.188-.528-1.188-1.188v-21.377c-.132 0-.396 0-.528 0-5.146 0-6.994-2.375-7.785-3.695-.924-1.847-.66-4.091.528-5.806 1.056-1.452 2.771-2.243 4.618-1.979 4.882.792 5.542 6.73 5.542 9.237h3.299c.66 0 1.188.528 1.188 1.188s-.528 1.188-1.188 1.188c-3.827 0-1.979 0-3.299 0v21.377c-.131.528-.659 1.055-1.187 1.055zm-5.146-31.801c-1.056 0-1.715.66-1.979 1.056-.66 1.056-.792 2.375-.264 3.431.792 1.583 2.771 2.375 5.674 2.507h.528c0-2.111-.528-6.466-3.563-6.862-.132-.132-.264-.132-.396-.132z" fill="#e29700"/><path d="m436.811 180.177c-.66 0-1.188-.528-1.188-1.188v-21.245s0 0-.132 0c-.396 0-1.056 0-3.299 0-.66 0-1.188-.528-1.188-1.188s.528-1.188 1.188-1.188h3.299c0-2.375.66-8.577 5.542-9.237 1.847-.264 3.563.396 4.618 1.979 1.188 1.583 1.452 3.827.528 5.674-.66 1.452-2.507 3.695-7.785 3.959-.264 0-.396 0-.66 0v21.377c.265.53-.263 1.057-.923 1.057zm5.015-31.801c-.132 0-.264 0-.396 0-3.035.528-3.563 4.882-3.563 6.994h.528c2.903-.132 5.014-1.056 5.674-2.639.528-1.056.396-2.375-.264-3.299-.264-.528-.924-1.056-1.979-1.056z" fill="#e29700"/><path d="m434.304 205.645h-5.146c-4.223 0-7.653-3.431-7.653-7.653v-11.348c0-4.223 3.431-7.653 7.653-7.653h5.146c4.223 0 7.653 3.431 7.653 7.653v11.348c.133 4.222-3.298 7.653-7.653 7.653z" fill="#4150d8"/><path d="m434.304 206.832h-5.146c-4.882 0-8.841-3.959-8.841-8.841v-11.348c0-4.882 3.959-8.841 8.841-8.841h5.146c4.882 0 8.841 3.959 8.841 8.841v11.348c0 4.883-3.958 8.841-8.841 8.841zm-5.146-26.655c-3.563 0-6.598 2.903-6.598 6.598v11.348c0 3.563 2.903 6.598 6.598 6.598h5.146c3.563 0 6.598-2.903 6.598-6.598v-11.348c0-3.563-2.903-6.598-6.598-6.598z" fill="#31409b"/><path d="m441.562 194.956h-19.397c-2.771 0-5.014-2.243-5.014-5.014v-8.181c0-2.771 2.243-5.014 5.014-5.014h19.397c2.771 0 5.014 2.243 5.014 5.014v8.181c0 2.771-2.243 5.014-5.014 5.014z" fill="#4150d8"/><path d="m441.562 196.144h-19.397c-3.431 0-6.202-2.771-6.202-6.202v-8.181c0-3.431 2.771-6.202 6.202-6.202h19.397c3.431 0 6.202 2.771 6.202 6.202v8.181c0 3.431-2.771 6.202-6.202 6.202zm-19.53-18.21c-2.111 0-3.959 1.715-3.959 3.959v8.181c0 2.111 1.715 3.959 3.959 3.959h19.397c2.111 0 3.959-1.715 3.959-3.959v-8.181c0-2.111-1.715-3.959-3.959-3.959z" fill="#31409b"/><path d="m446.576 184.664h-29.558c-.66 0-.396-.528-.396-1.188s-.264-1.188.396-1.188h29.558c.66 0 .558.528.558 1.188s.102 1.188-.558 1.188z" fill="#31409b"/><path d="m446.576 189.414h-29.558c-.66 0-.396-.528-.396-1.188s-.264-1.188.396-1.188h29.558c.66 0 .552.528.552 1.188s.108 1.188-.552 1.188z" fill="#31409b"/><path d="m432.193 102.983c-2.639 0-4.618-2.111-4.618-4.618v-17.022c0-2.639 2.111-4.618 4.618-4.618 2.639 0 4.618 2.111 4.618 4.618v17.022c.132 2.507-1.979 4.618-4.618 4.618z" fill="#ffca3b"/><path d="m404.218 113.276c-1.188 0-2.375-.396-3.299-1.32l-12.008-12.008c-1.847-1.847-1.847-4.75 0-6.598 1.847-1.847 4.75-1.847 6.598 0l12.008 12.008c1.847 1.847 1.847 4.75 0 6.598-.924.792-2.111 1.32-3.299 1.32z" fill="#ffca3b"/><path d="m460.299 113.276c-1.188 0-2.375-.396-3.299-1.32-1.847-1.847-1.847-4.75 0-6.598l12.008-12.008c1.847-1.847 4.75-1.847 6.598 0 1.847 1.847 1.847 4.75 0 6.598l-12.008 12.008c-.923.792-2.111 1.32-3.299 1.32z" fill="#ffca3b"/><path d="m432.193 104.171c-3.167 0-5.806-2.639-5.806-5.806v-17.022c0-3.167 2.639-5.806 5.806-5.806s5.806 2.639 5.806 5.806v17.022c.132 3.167-2.507 5.806-5.806 5.806zm0-26.391c-1.979 0-3.563 1.583-3.563 3.563v17.022c0 1.979 1.583 3.563 3.563 3.563 1.979 0 3.563-1.583 3.563-3.563v-17.022c0-1.98-1.584-3.563-3.563-3.563z" fill="#e29700"/><path d="m404.218 114.464c-1.583 0-3.035-.66-4.091-1.715l-12.007-12.009c-1.056-1.056-1.715-2.639-1.715-4.091 0-1.583.66-3.035 1.715-4.091 2.243-2.243 5.938-2.243 8.313 0l12.008 12.008c1.056 1.056 1.715 2.507 1.715 4.091 0 1.583-.66 3.035-1.715 4.091-1.188 1.056-2.639 1.716-4.223 1.716zm-12.008-21.509c-.924 0-1.847.396-2.507 1.056s-1.056 1.583-1.056 2.507.396 1.847 1.056 2.507l12.008 12.008c1.32 1.32 3.695 1.32 5.014 0 .66-.66 1.056-1.583 1.056-2.507s-.396-1.847-1.056-2.507l-12.008-12.009c-.791-.659-1.715-1.055-2.507-1.055z" fill="#e29700"/><path d="m460.299 114.464c-1.583 0-3.035-.66-4.091-1.715-1.056-1.056-1.715-2.639-1.715-4.091s.66-3.035 1.715-4.091l12.008-12.008c2.243-2.243 5.938-2.243 8.313 0 1.056 1.056 1.715 2.507 1.715 4.091s-.66 3.035-1.715 4.091l-12.008 12.008c-1.187 1.055-2.638 1.715-4.222 1.715zm12.008-21.509c-.924 0-1.847.396-2.507 1.056l-12.008 12.008c-.66.66-1.056 1.583-1.056 2.507s.396 1.847 1.056 2.507c1.32 1.32 3.695 1.32 5.014 0l12.008-12.008c.66-.66 1.056-1.583 1.056-2.507s-.396-1.847-1.056-2.507c-.659-.66-1.583-1.056-2.507-1.056z" fill="#e29700"/><path d="m408.958 369.343c-.047 0-.074 0-.083 0-.828-.016-1.486-.698-1.472-1.526.016-.828.694-1.438 1.525-1.474.334-.02 37.037.222 51.698-35.42.316-.766 1.191-1.133 1.958-.816.767.314 1.132 1.191.816 1.957-15.102 36.716-52.411 37.279-54.442 37.279z" fill="#acbfe5"/><path d="m444.563 374.245c-.616 0-1.193-.383-1.412-.996-.278-.779.129-1.638.908-1.917.141-.05 14.16-5.212 20.943-19.699.352-.75 1.245-1.075 1.994-.723.751.352 1.074 1.244.723 1.994-7.33 15.656-22.031 21.033-22.653 21.254-.166.06-.336.087-.503.087z" fill="#acbfe5"/></g></svg>